<svg width="1879" height="1259" viewBox="0 0 1879 1259" fill="none" xmlns="http://www.w3.org/2000/svg">
<path d="M414.406 266.541L819.515 266.534L932.195 445.334L832.929 617.99L720.248 445.334L528.189 445.334L215.65 991.667L1.25346 991.656L414.406 266.541Z" fill="url(#paint0_linear_62_103)"/>
<path d="M1048.55 991.657L643.443 991.663L530.763 812.863L630.03 640.207L742.71 812.863L934.769 812.863L1247.31 266.53L1461.7 266.541L1410.06 357.18L1397.15 379.84L1358.42 447.82L1255.13 629.099L1048.55 991.657Z" fill="url(#paint1_linear_62_103)"/>
<path d="M1679.58 988.289H1878.12L1703.73 686.466L1616.54 535.555H1415.99L1503.86 686.466L1679.58 988.289Z" fill="url(#paint2_linear_62_103)"/>
<defs>
<linearGradient id="paint0_linear_62_103" x1="747.886" y1="225.557" x2="233.591" y2="1124.57" gradientUnits="userSpaceOnUse">
<stop stop-color="#FF5900"/>
<stop offset="1" stop-color="#BA0000"/>
</linearGradient>
<linearGradient id="paint1_linear_62_103" x1="1229.37" y1="133.628" x2="715.072" y2="1032.64" gradientUnits="userSpaceOnUse">
<stop stop-color="#BA0000"/>
<stop offset="1" stop-color="#FF5900"/>
</linearGradient>
<linearGradient id="paint2_linear_62_103" x1="1647.28" y1="987.293" x2="1395.9" y2="560.701" gradientUnits="userSpaceOnUse">
<stop stop-color="#BA0000"/>
<stop offset="1" stop-color="#FF5900"/>
</linearGradient>
</defs>
</svg>
